<svg xmlns="http://www.w3.org/2000/svg" width="375" height="135"><path d="M 30.5 14 C 31.881 14 33 15.119 33 16.5 C 33 17.881 31.881 19 30.5 19 C 29.119 19 28 17.881 28 16.5 C 28 15.119 29.119 14 30.5 14 Z" fill="#FFFFFF" stroke="#AAA"></path><path d="M 69.5 52 C 70.881 52 72 53.119 72 54.5 C 72 55.881 70.881 57 69.5 57 C 68.119 57 67 55.881 67 54.5 C 67 53.119 68.119 52 69.5 52 Z" fill="#FFFFFF" stroke="#AAA"></path><path d="M 114.5 84 C 115.881 84 117 85.119 117 86.5 C 117 87.881 115.881 89 114.5 89 C 113.119 89 112 87.881 112 86.5 C 112 85.119 113.119 84 114.5 84 Z" fill="#FFFFFF" stroke="#AAA"></path><path d="M 125.5 23 C 126.881 23 128 24.119 128 25.5 C 128 26.881 126.881 28 125.5 28 C 124.119 28 123 26.881 123 25.5 C 123 24.119 124.119 23 125.5 23 Z" fill="#FFFFFF" stroke="#AAA"></path><path d="M 184.5 62 C 185.881 62 187 63.119 187 64.5 C 187 65.881 185.881 67 184.5 67 C 183.119 67 182 65.881 182 64.5 C 182 63.119 183.119 62 184.5 62 Z" fill="#FFFFFF" stroke="#AAA"></path><path d="M 262.5 42 C 263.881 42 265 43.119 265 44.5 C 265 45.881 263.881 47 262.5 47 C 261.119 47 260 45.881 260 44.5 C 260 43.119 261.119 42 262.5 42 Z" fill="#FFFFFF" stroke="#AAA"></path><path d="M 303.5 9 C 304.881 9 306 10.119 306 11.5 C 306 12.881 304.881 14 303.5 14 C 302.119 14 301 12.881 301 11.5 C 301 10.119 302.119 9 303.5 9 Z" fill="#FFFFFF" stroke="#AAA"></path><path d="M 350.5 51 C 351.881 51 353 52.119 353 53.5 C 353 54.881 351.881 56 350.5 56 C 349.119 56 348 54.881 348 53.5 C 348 52.119 349.119 51 350.5 51 Z" fill="#FFFFFF" stroke="#AAA"></path><g><defs><linearGradient id="idX56W1djKcg-802052208" gradientTransform="rotate(-90, 0.5, 0.5)"><stop offset="0" stop-color="rgba(244, 247, 251, 1.00)" stop-opacity="1"></stop><stop offset="1" stop-color="rgba(129, 176, 213, 1.00)" stop-opacity="1"></stop></linearGradient></defs><path d="M 323 95 C 323 108.807 311.807 120 298 120 C 287.739 120 278.921 113.818 275.069 104.975 C 278.615 106.904 282.679 108 287 108 C 300.807 108 312 96.807 312 83 C 312 79.454 311.262 76.081 309.931 73.025 C 317.716 77.261 323 85.513 323 95 Z" fill="url(#idX56W1djKcg-802052208)"></path></g></svg>